<mxfile host="app.diagrams.net" modified="2023-04-30T02:25:58.449Z" agent="5.0 (Windows NT 10.0; Win64; x64) AppleWebKit/537.36 (KHTML, like Gecko) Chrome/112.0.0.0 Safari/537.36 Edg/112.0.1722.58" etag="-IwZNJ1fXEz2ytoesQ1I" version="18.0.3" type="github">
  <diagram id="h0ed1XI-rmbXZ7aBcydB" name="Page-1">
    <mxGraphModel dx="1511" dy="895" grid="1" gridSize="10" guides="1" tooltips="1" connect="1" arrows="1" fold="1" page="1" pageScale="1" pageWidth="827" pageHeight="1169" math="0" shadow="0">
      <root>
        <mxCell id="0" />
        <mxCell id="1" parent="0" />
        <mxCell id="2eZoTIzYAIhM1XoWFFut-17" style="edgeStyle=orthogonalEdgeStyle;rounded=0;orthogonalLoop=1;jettySize=auto;html=1;entryX=0;entryY=0.5;entryDx=0;entryDy=0;fontSize=14;" edge="1" parent="1" source="2eZoTIzYAIhM1XoWFFut-1" target="2eZoTIzYAIhM1XoWFFut-2">
          <mxGeometry relative="1" as="geometry" />
        </mxCell>
        <mxCell id="2eZoTIzYAIhM1XoWFFut-1" value="&lt;font style=&quot;font-size: 14px;&quot;&gt;数据预处理&lt;/font&gt;" style="rounded=0;whiteSpace=wrap;html=1;" vertex="1" parent="1">
          <mxGeometry x="10" y="180" width="100" height="50" as="geometry" />
        </mxCell>
        <mxCell id="2eZoTIzYAIhM1XoWFFut-18" style="edgeStyle=orthogonalEdgeStyle;rounded=0;orthogonalLoop=1;jettySize=auto;html=1;entryX=0;entryY=0.5;entryDx=0;entryDy=0;fontSize=14;" edge="1" parent="1" source="2eZoTIzYAIhM1XoWFFut-2" target="2eZoTIzYAIhM1XoWFFut-3">
          <mxGeometry relative="1" as="geometry" />
        </mxCell>
        <mxCell id="2eZoTIzYAIhM1XoWFFut-2" value="&lt;font style=&quot;font-size: 14px;&quot;&gt;差分，确定d&lt;/font&gt;" style="rounded=0;whiteSpace=wrap;html=1;" vertex="1" parent="1">
          <mxGeometry x="140" y="180" width="100" height="50" as="geometry" />
        </mxCell>
        <mxCell id="2eZoTIzYAIhM1XoWFFut-19" style="edgeStyle=orthogonalEdgeStyle;rounded=0;orthogonalLoop=1;jettySize=auto;html=1;entryX=0;entryY=0.5;entryDx=0;entryDy=0;fontSize=14;" edge="1" parent="1" source="2eZoTIzYAIhM1XoWFFut-3" target="2eZoTIzYAIhM1XoWFFut-4">
          <mxGeometry relative="1" as="geometry" />
        </mxCell>
        <mxCell id="2eZoTIzYAIhM1XoWFFut-49" style="edgeStyle=orthogonalEdgeStyle;rounded=0;orthogonalLoop=1;jettySize=auto;html=1;entryX=0.5;entryY=0;entryDx=0;entryDy=0;fontSize=14;" edge="1" parent="1" source="2eZoTIzYAIhM1XoWFFut-3" target="2eZoTIzYAIhM1XoWFFut-2">
          <mxGeometry relative="1" as="geometry">
            <Array as="points">
              <mxPoint x="320" y="160" />
              <mxPoint x="190" y="160" />
            </Array>
          </mxGeometry>
        </mxCell>
        <mxCell id="2eZoTIzYAIhM1XoWFFut-3" value="&lt;font style=&quot;font-size: 14px;&quot;&gt;平稳性检验&lt;/font&gt;" style="rounded=0;whiteSpace=wrap;html=1;" vertex="1" parent="1">
          <mxGeometry x="270" y="180" width="100" height="50" as="geometry" />
        </mxCell>
        <mxCell id="2eZoTIzYAIhM1XoWFFut-20" style="edgeStyle=orthogonalEdgeStyle;rounded=0;orthogonalLoop=1;jettySize=auto;html=1;entryX=0;entryY=0.5;entryDx=0;entryDy=0;fontSize=14;" edge="1" parent="1" source="2eZoTIzYAIhM1XoWFFut-4" target="2eZoTIzYAIhM1XoWFFut-5">
          <mxGeometry relative="1" as="geometry" />
        </mxCell>
        <mxCell id="2eZoTIzYAIhM1XoWFFut-4" value="&lt;font style=&quot;font-size: 14px;&quot;&gt;自相关和偏自相关分析，确定p、q&lt;/font&gt;" style="rounded=0;whiteSpace=wrap;html=1;" vertex="1" parent="1">
          <mxGeometry x="400" y="180" width="100" height="50" as="geometry" />
        </mxCell>
        <mxCell id="2eZoTIzYAIhM1XoWFFut-21" style="edgeStyle=orthogonalEdgeStyle;rounded=0;orthogonalLoop=1;jettySize=auto;html=1;entryX=0;entryY=0.5;entryDx=0;entryDy=0;fontSize=14;" edge="1" parent="1" source="2eZoTIzYAIhM1XoWFFut-5" target="2eZoTIzYAIhM1XoWFFut-6">
          <mxGeometry relative="1" as="geometry" />
        </mxCell>
        <mxCell id="2eZoTIzYAIhM1XoWFFut-5" value="&lt;font style=&quot;font-size: 14px;&quot;&gt;拟合模型&lt;/font&gt;" style="rounded=0;whiteSpace=wrap;html=1;" vertex="1" parent="1">
          <mxGeometry x="530" y="180" width="100" height="50" as="geometry" />
        </mxCell>
        <mxCell id="2eZoTIzYAIhM1XoWFFut-22" style="edgeStyle=orthogonalEdgeStyle;rounded=0;orthogonalLoop=1;jettySize=auto;html=1;entryX=0;entryY=0.5;entryDx=0;entryDy=0;fontSize=14;" edge="1" parent="1" source="2eZoTIzYAIhM1XoWFFut-6" target="2eZoTIzYAIhM1XoWFFut-7">
          <mxGeometry relative="1" as="geometry" />
        </mxCell>
        <mxCell id="2eZoTIzYAIhM1XoWFFut-6" value="&lt;font style=&quot;font-size: 14px;&quot;&gt;拟合度检验&lt;br&gt;残差检验&lt;/font&gt;" style="rounded=0;whiteSpace=wrap;html=1;" vertex="1" parent="1">
          <mxGeometry x="657" y="180" width="100" height="50" as="geometry" />
        </mxCell>
        <mxCell id="2eZoTIzYAIhM1XoWFFut-7" value="&lt;font style=&quot;font-size: 14px;&quot;&gt;预测和评价&lt;/font&gt;" style="rounded=0;whiteSpace=wrap;html=1;" vertex="1" parent="1">
          <mxGeometry x="780" y="180" width="100" height="50" as="geometry" />
        </mxCell>
        <mxCell id="2eZoTIzYAIhM1XoWFFut-42" style="edgeStyle=orthogonalEdgeStyle;rounded=0;orthogonalLoop=1;jettySize=auto;html=1;entryX=0.5;entryY=0;entryDx=0;entryDy=0;fontSize=14;" edge="1" parent="1" source="2eZoTIzYAIhM1XoWFFut-27" target="2eZoTIzYAIhM1XoWFFut-29">
          <mxGeometry relative="1" as="geometry" />
        </mxCell>
        <mxCell id="2eZoTIzYAIhM1XoWFFut-27" value="&lt;font style=&quot;font-size: 14px;&quot;&gt;数据预处理&lt;/font&gt;" style="rounded=0;whiteSpace=wrap;html=1;" vertex="1" parent="1">
          <mxGeometry x="490" y="330" width="100" height="50" as="geometry" />
        </mxCell>
        <mxCell id="2eZoTIzYAIhM1XoWFFut-43" style="edgeStyle=orthogonalEdgeStyle;rounded=0;orthogonalLoop=1;jettySize=auto;html=1;entryX=0.5;entryY=0;entryDx=0;entryDy=0;fontSize=14;" edge="1" parent="1" source="2eZoTIzYAIhM1XoWFFut-29" target="2eZoTIzYAIhM1XoWFFut-32">
          <mxGeometry relative="1" as="geometry" />
        </mxCell>
        <mxCell id="2eZoTIzYAIhM1XoWFFut-29" value="&lt;font style=&quot;font-size: 14px;&quot;&gt;差分，确定d&lt;/font&gt;" style="rounded=0;whiteSpace=wrap;html=1;" vertex="1" parent="1">
          <mxGeometry x="490" y="410" width="100" height="50" as="geometry" />
        </mxCell>
        <mxCell id="2eZoTIzYAIhM1XoWFFut-44" style="edgeStyle=orthogonalEdgeStyle;rounded=0;orthogonalLoop=1;jettySize=auto;html=1;entryX=0.5;entryY=0;entryDx=0;entryDy=0;fontSize=14;" edge="1" parent="1" source="2eZoTIzYAIhM1XoWFFut-32" target="2eZoTIzYAIhM1XoWFFut-34">
          <mxGeometry relative="1" as="geometry" />
        </mxCell>
        <mxCell id="2eZoTIzYAIhM1XoWFFut-50" style="edgeStyle=orthogonalEdgeStyle;rounded=0;orthogonalLoop=1;jettySize=auto;html=1;entryX=1;entryY=0.5;entryDx=0;entryDy=0;fontSize=14;exitX=1;exitY=0.5;exitDx=0;exitDy=0;" edge="1" parent="1" source="2eZoTIzYAIhM1XoWFFut-32" target="2eZoTIzYAIhM1XoWFFut-29">
          <mxGeometry relative="1" as="geometry" />
        </mxCell>
        <mxCell id="2eZoTIzYAIhM1XoWFFut-32" value="&lt;font style=&quot;font-size: 14px;&quot;&gt;平稳性检验&lt;/font&gt;" style="rounded=0;whiteSpace=wrap;html=1;" vertex="1" parent="1">
          <mxGeometry x="490" y="490" width="100" height="50" as="geometry" />
        </mxCell>
        <mxCell id="2eZoTIzYAIhM1XoWFFut-45" style="edgeStyle=orthogonalEdgeStyle;rounded=0;orthogonalLoop=1;jettySize=auto;html=1;entryX=0.5;entryY=0;entryDx=0;entryDy=0;fontSize=14;" edge="1" parent="1" source="2eZoTIzYAIhM1XoWFFut-34" target="2eZoTIzYAIhM1XoWFFut-36">
          <mxGeometry relative="1" as="geometry" />
        </mxCell>
        <mxCell id="2eZoTIzYAIhM1XoWFFut-34" value="&lt;font style=&quot;font-size: 14px;&quot;&gt;自相关和偏自相关分析，确定p、q&lt;/font&gt;" style="rounded=0;whiteSpace=wrap;html=1;" vertex="1" parent="1">
          <mxGeometry x="490" y="570" width="100" height="50" as="geometry" />
        </mxCell>
        <mxCell id="2eZoTIzYAIhM1XoWFFut-46" style="edgeStyle=orthogonalEdgeStyle;rounded=0;orthogonalLoop=1;jettySize=auto;html=1;entryX=0.5;entryY=0;entryDx=0;entryDy=0;fontSize=14;" edge="1" parent="1" source="2eZoTIzYAIhM1XoWFFut-36" target="2eZoTIzYAIhM1XoWFFut-38">
          <mxGeometry relative="1" as="geometry" />
        </mxCell>
        <mxCell id="2eZoTIzYAIhM1XoWFFut-36" value="&lt;font style=&quot;font-size: 14px;&quot;&gt;拟合模型&lt;/font&gt;" style="rounded=0;whiteSpace=wrap;html=1;" vertex="1" parent="1">
          <mxGeometry x="490" y="650" width="100" height="50" as="geometry" />
        </mxCell>
        <mxCell id="2eZoTIzYAIhM1XoWFFut-47" style="edgeStyle=orthogonalEdgeStyle;rounded=0;orthogonalLoop=1;jettySize=auto;html=1;entryX=0.5;entryY=0;entryDx=0;entryDy=0;fontSize=14;" edge="1" parent="1" source="2eZoTIzYAIhM1XoWFFut-38" target="2eZoTIzYAIhM1XoWFFut-39">
          <mxGeometry relative="1" as="geometry" />
        </mxCell>
        <mxCell id="2eZoTIzYAIhM1XoWFFut-38" value="&lt;font style=&quot;font-size: 14px;&quot;&gt;拟合度检验&lt;br&gt;残差检验&lt;/font&gt;" style="rounded=0;whiteSpace=wrap;html=1;" vertex="1" parent="1">
          <mxGeometry x="490" y="730" width="100" height="50" as="geometry" />
        </mxCell>
        <mxCell id="2eZoTIzYAIhM1XoWFFut-39" value="&lt;font style=&quot;font-size: 14px;&quot;&gt;预测和评价&lt;/font&gt;" style="rounded=0;whiteSpace=wrap;html=1;" vertex="1" parent="1">
          <mxGeometry x="490" y="810" width="100" height="50" as="geometry" />
        </mxCell>
        <mxCell id="2eZoTIzYAIhM1XoWFFut-51" value="Yes" style="text;html=1;align=center;verticalAlign=middle;resizable=0;points=[];autosize=1;strokeColor=none;fillColor=none;fontSize=14;" vertex="1" parent="1">
          <mxGeometry x="360" y="190" width="40" height="20" as="geometry" />
        </mxCell>
        <mxCell id="2eZoTIzYAIhM1XoWFFut-52" value="No" style="text;html=1;align=center;verticalAlign=middle;resizable=0;points=[];autosize=1;strokeColor=none;fillColor=none;fontSize=14;" vertex="1" parent="1">
          <mxGeometry x="235" y="140" width="30" height="20" as="geometry" />
        </mxCell>
        <mxCell id="2eZoTIzYAIhM1XoWFFut-53" value="No" style="text;html=1;align=center;verticalAlign=middle;resizable=0;points=[];autosize=1;strokeColor=none;fillColor=none;fontSize=14;" vertex="1" parent="1">
          <mxGeometry x="610" y="470" width="30" height="20" as="geometry" />
        </mxCell>
        <mxCell id="2eZoTIzYAIhM1XoWFFut-54" value="Yes" style="text;html=1;align=center;verticalAlign=middle;resizable=0;points=[];autosize=1;strokeColor=none;fillColor=none;fontSize=14;" vertex="1" parent="1">
          <mxGeometry x="540" y="540" width="40" height="20" as="geometry" />
        </mxCell>
      </root>
    </mxGraphModel>
  </diagram>
</mxfile>
